<svg width="480" height="240" viewBox="0 0 480 240" fill="none" xmlns="http://www.w3.org/2000/svg">
<path d="M134.962 194.689C134.962 189.037 137.201 183.616 141.186 179.619C145.171 175.622 150.576 173.377 156.212 173.377H273.087C282.989 173.377 287.941 173.377 291.84 171.757C294.42 170.686 296.764 169.115 298.739 167.135C300.713 165.155 302.279 162.804 303.347 160.216C304.962 156.306 304.962 151.34 304.962 141.408V173.377C304.962 193.474 304.962 203.513 298.736 209.757C292.509 216.002 282.501 216.002 262.462 216.002H156.212C150.576 216.002 145.171 213.756 141.186 209.759C137.201 205.763 134.962 200.342 134.962 194.689Z" fill="#F49D0B"/>
<mask id="path-2-inside-1_1666_14599" fill="white">
<path d="M304.96 194.497C304.96 206.268 295.446 215.81 283.71 215.81H266.101C283.735 215.787 292.896 215.421 298.733 209.566C304.959 203.322 304.96 193.284 304.96 173.187V194.497ZM144.867 212.521C147.644 214.279 150.801 215.375 154.092 215.705C150.723 215.371 147.587 214.247 144.867 212.521ZM283.71 23.998C295.446 23.998 304.96 33.54 304.96 45.3105V141.218C304.96 151.149 304.96 156.116 303.345 160.026C302.277 162.614 300.711 164.965 298.736 166.945C296.762 168.925 294.418 170.495 291.838 171.566C287.939 173.186 282.987 173.187 273.085 173.187H156.21C150.574 173.187 145.169 175.432 141.184 179.429C137.198 183.426 134.96 188.847 134.96 194.499C134.96 198.889 136.311 203.138 138.781 206.69C136.374 203.235 134.96 199.032 134.96 194.497V45.3105C134.96 33.54 144.474 23.998 156.21 23.998H283.71Z"/>
</mask>
<path d="M304.96 194.497C304.96 206.268 295.446 215.81 283.71 215.81H266.101C283.735 215.787 292.896 215.421 298.733 209.566C304.959 203.322 304.96 193.284 304.96 173.187V194.497ZM144.867 212.521C147.644 214.279 150.801 215.375 154.092 215.705C150.723 215.371 147.587 214.247 144.867 212.521ZM283.71 23.998C295.446 23.998 304.96 33.54 304.96 45.3105V141.218C304.96 151.149 304.96 156.116 303.345 160.026C302.277 162.614 300.711 164.965 298.736 166.945C296.762 168.925 294.418 170.495 291.838 171.566C287.939 173.186 282.987 173.187 273.085 173.187H156.21C150.574 173.187 145.169 175.432 141.184 179.429C137.198 183.426 134.96 188.847 134.96 194.499C134.96 198.889 136.311 203.138 138.781 206.69C136.374 203.235 134.96 199.032 134.96 194.497V45.3105C134.96 33.54 144.474 23.998 156.21 23.998H283.71Z" fill="#FBD24D"/>
<path d="M266.101 215.81L266.089 207.251L266.101 224.368V215.81ZM298.733 209.566L304.794 215.61L304.794 215.609L298.733 209.566ZM144.867 212.521L149.445 205.29L140.283 219.749L144.867 212.521ZM154.092 215.705L153.246 224.222L154.947 207.189L154.092 215.705ZM303.345 160.026L295.434 156.76L295.433 156.761L303.345 160.026ZM298.736 166.945L304.797 172.989L304.797 172.988L298.736 166.945ZM291.838 171.566L288.556 163.662L288.555 163.662L291.838 171.566ZM273.085 173.187V181.745V173.187ZM141.184 179.429L135.123 173.386H135.123L141.184 179.429ZM134.96 194.499H126.401V194.499L134.96 194.499ZM138.781 206.69L131.759 211.584L145.808 201.804L138.781 206.69ZM304.96 194.497H296.401C296.401 201.564 290.695 207.251 283.71 207.251V215.81V224.368C300.197 224.368 313.519 210.971 313.519 194.497H304.96ZM283.71 215.81V207.251H266.101V215.81V224.368H283.71V215.81ZM266.101 215.81L266.112 224.368C274.772 224.357 282.171 224.278 288.178 223.329C294.439 222.339 300.146 220.272 304.794 215.61L298.733 209.566L292.673 203.523C291.484 204.716 289.692 205.759 285.504 206.421C281.062 207.123 275.063 207.239 266.089 207.251L266.101 215.81ZM298.733 209.566L304.794 215.609C309.757 210.632 311.759 204.458 312.664 197.709C313.537 191.206 313.519 182.994 313.519 173.187H304.96H296.401C296.401 183.477 296.383 190.332 295.699 195.433C295.047 200.289 293.936 202.256 292.672 203.523L298.733 209.566ZM304.96 173.187H296.401V194.497H304.96H313.519V173.187H304.96ZM144.867 212.521L140.289 219.753C144.186 222.22 148.616 223.757 153.237 224.221L154.092 215.705L154.947 207.189C152.986 206.992 151.103 206.339 149.445 205.29L144.867 212.521ZM154.092 215.705L154.937 207.188C152.936 206.989 151.075 206.324 149.452 205.294L144.867 212.521L140.283 219.749C144.099 222.17 148.511 223.752 153.246 224.222L154.092 215.705ZM283.71 23.998V32.5569C290.695 32.5569 296.401 38.2432 296.401 45.3105H304.96H313.519C313.519 28.8368 300.197 15.4392 283.71 15.4392V23.998ZM304.96 45.3105H296.401V141.218H304.96H313.519V45.3105H304.96ZM304.96 141.218H296.401C296.401 146.3 296.396 149.685 296.219 152.3C296.046 154.839 295.739 156.019 295.434 156.76L303.345 160.026L311.256 163.293C312.565 160.122 313.066 156.865 313.297 153.46C313.523 150.131 313.519 146.067 313.519 141.218H304.96ZM303.345 160.026L295.433 156.761C294.793 158.311 293.856 159.718 292.675 160.902L298.736 166.945L304.797 172.988C307.566 170.212 309.76 166.916 311.256 163.292L303.345 160.026ZM298.736 166.945L292.676 160.902C291.496 162.085 290.096 163.022 288.556 163.662L291.838 171.566L295.12 179.471C298.739 177.968 302.028 175.766 304.797 172.989L298.736 166.945ZM291.838 171.566L288.555 163.662C287.825 163.965 286.656 164.272 284.129 164.445C281.525 164.623 278.153 164.628 273.085 164.628V173.187V181.745C277.919 181.745 281.974 181.75 285.296 181.523C288.695 181.29 291.951 180.787 295.121 179.47L291.838 171.566ZM273.085 173.187V164.628H156.21V173.187V181.745H273.085V173.187ZM156.21 173.187V164.628C148.296 164.628 140.711 167.781 135.123 173.386L141.184 179.429L147.244 185.472C149.626 183.083 152.852 181.745 156.21 181.745V173.187ZM141.184 179.429L135.123 173.386C129.535 178.99 126.401 186.585 126.401 194.499H134.96H143.519C143.519 191.108 144.862 187.861 147.245 185.472L141.184 179.429ZM134.96 194.499L126.401 194.499C126.401 200.648 128.294 206.6 131.754 211.577L138.781 206.69L145.808 201.804C144.329 199.677 143.519 197.13 143.519 194.499L134.96 194.499ZM138.781 206.69L145.803 201.797C144.364 199.731 143.519 197.226 143.519 194.497H134.96H126.401C126.401 200.838 128.384 206.74 131.759 211.584L138.781 206.69ZM134.96 194.497H143.519V45.3105H134.96H126.401V194.497H134.96ZM134.96 45.3105H143.519C143.519 38.2432 149.225 32.5569 156.21 32.5569V23.998V15.4392C139.723 15.4392 126.401 28.8368 126.401 45.3105H134.96ZM156.21 23.998V32.5569H283.71V23.998V15.4392H156.21V23.998Z" fill="white" mask="url(#path-2-inside-1_1666_14599)"/>
<g style="mix-blend-mode:overlay">
<path d="M304.961 194.498C304.961 206.269 295.447 215.81 283.711 215.811H255.315C246.487 203.293 241.301 188.024 241.301 171.542C241.301 133.587 268.8 102.055 304.961 95.7812V194.498Z" fill="black" fill-opacity="0.3"/>
</g>
<path d="M267.86 86.4513C267.328 86.7553 266.682 86.8693 265.922 86.7933C265.162 86.6413 264.516 86.1473 263.984 85.3113C262.768 83.7153 261.286 82.9173 259.538 82.9173C257.942 82.9173 256.498 83.2973 255.206 84.0573C253.99 84.7413 252.888 85.6913 251.9 86.9073C250.988 88.0473 250.228 89.3393 249.62 90.7833C249.012 92.2273 248.594 93.6713 248.366 95.1153C247.986 97.7753 248.442 100.017 249.734 101.841C251.026 103.665 253.04 104.577 255.776 104.577C257.98 104.653 260.45 104.235 263.186 103.323C265.998 102.335 268.62 101.081 271.052 99.5613C272.116 99.1053 273.104 98.8393 274.016 98.7633C274.928 98.6873 275.688 99.1433 276.296 100.131C277.056 101.347 276.866 102.601 275.726 103.893C274.586 105.109 273.066 106.211 271.166 107.199C269.266 108.263 267.252 109.213 265.124 110.049C263.072 110.809 260.982 111.379 258.854 111.759C256.726 112.063 254.598 112.063 252.47 111.759C250.418 111.455 248.48 110.733 246.656 109.593C243.768 107.617 242.02 104.805 241.412 101.157C240.804 97.5093 241.07 93.7473 242.21 89.8713C242.666 88.4273 243.312 86.9833 244.148 85.5393C244.984 84.0193 245.972 82.6513 247.112 81.4353C248.328 80.2193 249.658 79.1933 251.102 78.3573C252.546 77.4453 254.142 76.8373 255.89 76.5333C258.702 76.0773 261.4 76.3813 263.984 77.4453C266.568 78.4333 268.278 80.2953 269.114 83.0313C269.266 83.6393 269.266 84.2853 269.114 84.9693C268.962 85.5773 268.544 86.0713 267.86 86.4513Z" fill="white"/>
<path d="M213.491 57.8384C213.567 59.0544 213.605 60.5364 213.605 62.2844C213.681 64.0324 213.757 65.9324 213.833 67.9844C213.909 70.0364 214.023 72.1264 214.175 74.2544C214.327 76.3064 214.555 78.2824 214.859 80.1824C215.999 78.2824 217.291 76.8384 218.735 75.8504C220.255 74.8624 221.775 74.2544 223.295 74.0264C225.651 73.7224 227.703 73.9884 229.451 74.8244C231.199 75.6604 232.643 76.8384 233.783 78.3584C234.923 79.8024 235.759 81.4364 236.291 83.2604C236.823 85.0084 237.089 86.7184 237.089 88.3904C237.089 91.9624 236.139 95.2684 234.239 98.3084C232.415 101.348 230.249 104.046 227.741 106.402C225.309 108.758 222.877 110.734 220.445 112.33C218.089 113.926 216.379 115.066 215.315 115.75C213.795 116.358 212.313 116.51 210.869 116.206C209.425 115.902 208.475 115.446 208.019 114.838C207.639 113.926 207.525 113.166 207.677 112.558C207.829 111.874 208.133 111.266 208.589 110.734C209.045 110.202 209.577 109.746 210.185 109.366C210.869 108.91 211.439 108.492 211.895 108.112C210.071 99.7524 208.665 91.3164 207.677 82.8044C206.689 74.2164 206.271 65.5144 206.423 56.6984C206.423 55.1784 206.727 54.3044 207.335 54.0764C208.019 53.8484 208.589 53.7344 209.045 53.7344C210.109 53.8864 211.059 54.3044 211.895 54.9884C212.731 55.6724 213.263 56.6224 213.491 57.8384ZM230.135 88.0484C230.135 85.4644 229.489 83.6784 228.197 82.6904C226.905 81.6264 225.575 81.1704 224.207 81.3224C223.067 81.4744 222.041 81.8924 221.129 82.5764C220.217 83.2604 219.419 84.0964 218.735 85.0844C218.051 86.0724 217.519 87.1744 217.139 88.3904C216.835 89.6064 216.721 90.7844 216.797 91.9244C216.949 93.8244 217.139 95.8764 217.367 98.0804C217.671 100.284 218.013 102.26 218.393 104.008C219.609 103.172 220.901 102.222 222.269 101.158C223.637 100.018 224.891 98.7644 226.031 97.3964C227.247 96.0284 228.235 94.5844 228.995 93.0644C229.755 91.4684 230.135 89.7964 230.135 88.0484Z" fill="white"/>
<path d="M162.652 115.864C162.272 117.156 161.778 118.334 161.17 119.398C160.562 120.386 159.916 120.956 159.232 121.108C157.788 121.488 156.686 121.26 155.926 120.424C155.166 119.588 154.862 118.524 155.014 117.232C155.622 112.672 156.61 107.884 157.978 102.868C159.346 97.7759 160.942 92.7219 162.766 87.7059C164.59 82.6139 166.566 77.7119 168.694 72.9999C170.898 68.2119 173.14 63.8799 175.42 60.0039C175.8 59.3959 176.218 59.0539 176.674 58.9779C177.206 58.8259 177.662 58.8259 178.042 58.9779C178.422 58.6739 178.878 58.4079 179.41 58.1799C179.942 57.9519 180.474 57.8379 181.006 57.8379C181.234 57.8379 181.462 57.8759 181.69 57.9519C181.994 58.0279 182.298 58.2559 182.602 58.6359C182.906 59.0159 183.248 59.5859 183.628 60.3459C184.084 61.0299 184.616 62.0559 185.224 63.4239C186.288 67.2999 187.504 71.2899 188.872 75.3939C190.316 79.4979 191.798 83.6019 193.318 87.7059C193.546 87.6299 193.736 87.5919 193.888 87.5919C194.116 87.5159 194.344 87.4399 194.572 87.3639C195.408 87.2879 196.358 87.3259 197.422 87.4779C198.486 87.6299 199.208 88.1619 199.588 89.0739C200.044 90.2139 199.968 91.2019 199.36 92.0379C198.752 92.8739 197.65 93.7099 196.054 94.5459C197.042 96.9779 198.03 99.3719 199.018 101.728C200.006 104.008 201.032 106.25 202.096 108.454C202.172 108.834 202.286 109.442 202.438 110.278C202.59 111.038 202.666 111.836 202.666 112.672C202.742 113.432 202.704 114.154 202.552 114.838C202.4 115.522 202.096 115.978 201.64 116.206C201.108 116.434 200.538 116.396 199.93 116.092C199.398 115.788 198.866 115.408 198.334 114.952C197.802 114.42 197.308 113.888 196.852 113.356C196.472 112.748 196.168 112.216 195.94 111.76C194.648 109.252 193.394 106.744 192.178 104.236C191.038 101.652 189.936 99.0679 188.872 96.4839C185.68 97.0919 182.184 97.6239 178.384 98.0799C174.66 98.5359 170.974 98.8399 167.326 98.9919C166.49 101.88 165.654 104.73 164.818 107.542C164.058 110.278 163.336 113.052 162.652 115.864ZM178.84 67.9839C175.344 75.8119 172.304 83.6399 169.72 91.4679C174.812 91.3159 180.246 90.6699 186.022 89.5299C183.286 82.6139 180.892 75.4319 178.84 67.9839Z" fill="white"/>
<path d="M159.994 148.249C164.711 142.483 179.02 132.054 198.519 136.456C222.892 141.958 237.717 155.66 252.791 146.058" stroke="white" stroke-width="8.55887" stroke-linecap="round"/>
<path d="M295.758 79.7812C311.017 79.7812 323.39 92.1543 323.391 107.413C323.391 115.442 317.895 126.97 307.467 136.354C296.846 145.909 280.797 153.58 258.937 153.708C258.762 153.719 258.587 153.728 258.412 153.729C258.406 153.729 258.4 153.729 258.394 153.729C256.02 153.729 253.743 152.785 252.064 151.106C250.386 149.428 249.443 147.152 249.443 144.778C249.443 142.405 250.386 140.128 252.064 138.449C253.743 136.771 256.02 135.828 258.394 135.828C260.423 135.828 261.888 135.022 263.167 133.44C264.57 131.705 265.689 129.067 266.496 125.764C268.107 119.17 268.126 111.496 268.126 107.413C268.126 92.1543 280.499 79.7814 295.758 79.7812ZM345.039 28.4805C346.518 28.4806 347.892 29.2441 348.673 30.5C349.454 31.7559 349.531 33.326 348.877 34.6523L323.195 86.7197C322.578 87.972 321.388 88.8444 320.008 89.0566C318.628 89.2689 317.231 88.7939 316.266 87.7852C311.566 82.8748 305.139 79.6661 297.948 79.1143C296.568 79.0084 295.325 78.2409 294.61 77.0557C293.896 75.8705 293.799 74.413 294.35 73.1436L312.608 31.0566C313.287 29.4925 314.83 28.4805 316.535 28.4805H345.039Z" fill="#808BF7" stroke="white" stroke-width="8.55887" stroke-linejoin="round"/>
</svg>
