<svg width="128" height="136" viewBox="0 0 128 136" fill="none" xmlns="http://www.w3.org/2000/svg">
<g filter="url(#filter0_d_833_12932)">
<mask id="path-1-outside-1_833_12932" maskUnits="userSpaceOnUse" x="-0.558167" y="-0.558083" width="129" height="128" fill="black">
<rect fill="white" x="-0.558167" y="-0.558083" width="129" height="128"/>
<path fill-rule="evenodd" clip-rule="evenodd" d="M117.524 59.8823L117.593 60.3242L117.658 60.7677L117.72 61.2126L117.779 61.6591L117.835 62.107L117.887 62.5564L117.935 63.0073L117.98 63.4596L118.022 63.9134L118.059 64.3685L118.093 64.8251L118.123 65.2831L118.149 65.7425L118.171 66.2031L118.189 66.6651L118.203 67.1283L118.213 67.5928L118.218 68.0585L118.22 68.5253L118.216 68.9933L118.208 69.4623L118.196 69.9323L118.178 70.4033L118.156 70.8752L118.129 71.3479L118.097 71.8214L118.06 72.2956L118.018 72.7705L117.971 73.2459L117.918 73.7218L117.86 74.1982L117.796 74.6749L117.728 75.1518L117.653 75.6289L117.573 76.1061L117.487 76.5833L117.396 77.0604L117.298 77.5373L117.195 78.014L117.086 78.4903L116.971 78.9662L116.85 79.4415L116.724 79.9162L116.591 80.3903L116.452 80.8635L116.308 81.3358L116.157 81.8072L116.001 82.2776L115.838 82.7468L115.669 83.2149L115.495 83.6817L115.315 84.1472L115.129 84.6114L114.937 85.074L114.739 85.5352L114.536 85.9949L114.326 86.453L114.112 86.9095L113.892 87.3643L113.666 87.8175L113.435 88.269L113.199 88.7187L112.957 89.1667L112.71 89.613L112.458 90.0574L112.201 90.5001L111.939 90.941L111.671 91.38L111.399 91.8173L111.122 92.2527L110.841 92.6863L110.554 93.118L110.263 93.548L109.967 93.9761L109.666 94.4024L109.361 94.8268L109.051 95.2495L108.737 95.6703L108.418 96.0894L108.095 96.5066L107.768 96.9221L107.436 97.3357L107.1 97.7475L106.759 98.1575L106.414 98.5657L106.064 98.9721L105.711 99.3766L105.353 99.7794L104.99 100.18L104.624 100.579L104.253 100.976L103.877 101.371L103.498 101.765L103.114 102.156L102.725 102.545L102.332 102.932L101.935 103.317L101.533 103.7L101.127 104.08L100.716 104.458L100.301 104.834L99.8813 105.207L99.4569 105.578L99.0279 105.946L98.5943 106.311L98.156 106.674L97.7131 107.033L97.2654 107.389L96.8129 107.743L96.3557 108.092L95.8937 108.439L95.427 108.782L94.9553 109.121L94.4789 109.456L93.9976 109.787L93.5115 110.114L93.0205 110.437L92.5247 110.755L92.0241 111.068L91.5186 111.377L91.0083 111.68L90.4932 111.978L89.9734 112.271L89.4488 112.559L88.9195 112.84L88.3856 113.116L87.8471 113.386L87.3041 113.649L86.7565 113.906L86.2046 114.157L85.6482 114.4L85.0877 114.637L84.5229 114.866L83.954 115.089L83.3812 115.304L82.8044 115.511L82.2238 115.711L81.6396 115.902L81.0517 116.086L80.4605 116.262L79.8658 116.43L79.268 116.589L78.6671 116.74L78.0632 116.882L77.4566 117.016L76.8473 117.141L76.2354 117.258L75.6211 117.366L75.0046 117.465L74.3859 117.555L73.7653 117.636L73.1428 117.709L72.5187 117.773L71.893 117.828L71.2658 117.874L70.6374 117.911L70.0078 117.94L69.3771 117.96L68.7455 117.972L68.1132 117.975L67.4801 117.97L66.8465 117.956L66.2124 117.934L65.578 117.903L64.9433 117.865L64.3085 117.818L63.6737 117.763L63.0389 117.7L62.4042 117.629L61.7697 117.551L61.1356 117.464L60.5018 117.37L59.8685 117.269L59.2358 117.16L58.6036 117.043L57.9722 116.919L57.3414 116.788L56.7115 116.649L56.0824 116.504L55.4543 116.351L54.8271 116.192L54.201 116.025L53.5759 115.852L52.952 115.671L52.3293 115.484L51.7078 115.29L51.0877 115.09L50.4689 114.883L49.8514 114.669L49.2355 114.449L48.621 114.222L48.0081 113.989L47.3969 113.749L46.7872 113.503L46.1793 113.25L45.5732 112.991L44.9688 112.725L44.3663 112.454L43.7658 112.176L43.1671 111.891L42.5705 111.601L41.9759 111.304L41.3834 111.001L40.7931 110.691L40.205 110.376L39.6191 110.054L39.0355 109.727L38.4543 109.393L37.8756 109.053L37.2993 108.707L36.7257 108.354L36.1546 107.996L35.5863 107.631L35.0208 107.26L34.4581 106.883L33.8984 106.5L33.3418 106.111L32.7883 105.715L32.238 105.313L31.6911 104.905L31.1476 104.491L30.6077 104.07L30.0715 103.643L29.5391 103.21L29.0106 102.771L28.4861 102.325L27.9658 101.873L27.4499 101.414L26.9384 100.949L26.4314 100.478L25.9293 100L25.432 99.516L24.9397 99.0256L24.4526 98.5287L23.9709 98.0256L23.4947 97.516L23.0241 97.0002L22.5594 96.478L22.1006 95.9495L21.6479 95.4148L21.2015 94.8739L20.7616 94.3268L20.3282 93.7735L19.9016 93.2142L19.4819 92.6489L19.0692 92.0777L18.6637 91.5005L18.2655 90.9176L17.8748 90.329L17.4916 89.7347L17.1161 89.1349L16.7485 88.5297L16.3888 87.9191L16.0371 87.3033L15.6936 86.6823L15.3583 86.0564L15.0314 85.4256L14.7129 84.79L14.403 84.1497L14.1018 83.5049L13.8092 82.8557L13.5255 82.2022L13.2508 81.5445L12.985 80.8829L12.7283 80.2173L12.4808 79.548L12.2425 78.875L12.0136 78.1986L11.794 77.5189L11.5839 76.8359L11.3833 76.1499L11.1923 75.461L11.0109 74.7694L10.8392 74.0751L10.6772 73.3784L10.5251 72.6794L10.3827 71.9782L10.2503 71.2751L10.1278 70.5701L10.0152 69.8634L9.91263 69.1552L9.82008 68.4456L9.73758 67.7348L9.66515 67.023L9.60282 66.3103L9.55061 65.5968L9.50854 64.8828L9.47661 64.1684L9.45486 63.4537L9.44326 62.7389L9.44183 62.0242L9.45055 61.3098L9.46941 60.5958L9.49837 59.8823L9.5374 59.1696L9.58646 58.4577L9.64551 57.7469L9.7145 57.0373L9.79336 56.329L9.88205 55.6223L9.98048 54.9172L10.0886 54.2139L10.2063 53.5126L10.3336 52.8133L10.4703 52.1163L10.6163 51.4217L10.7717 50.7295L10.9362 50.04L11.1099 49.3533L11.2925 48.6695L11.4841 47.9887L11.6845 47.311L11.8937 46.6366L12.1115 45.9656L12.3378 45.2981L12.5726 44.6342L12.8158 43.974L13.0673 43.3177L13.3269 42.6653L13.5946 42.0169L13.8703 41.3727L14.1539 40.7327L14.4453 40.0971L14.7444 39.4659L15.0512 38.8393L15.3655 38.2173L15.6873 37.6001L16.0165 36.9877L16.353 36.3802L16.6966 35.7777L17.0474 35.1804L17.4052 34.5883L17.77 34.0014L18.1416 33.42L18.5201 32.844L18.9052 32.2735L19.2969 31.7087L19.6952 31.1497L20.0998 30.5964L20.5109 30.0491L20.9282 29.5077L21.3516 28.9724L21.7812 28.4432L22.2167 27.9202L22.6581 27.4034L23.1053 26.8931L23.5582 26.3891L24.0166 25.8917L24.4805 25.4007L24.9498 24.9164L25.4244 24.4388L25.9041 23.9678L26.3888 23.5037L26.8785 23.0463L27.373 22.5959L27.8722 22.1523L28.3761 21.7158L28.8844 21.2863L29.3972 20.8638L29.9142 20.4485L30.4355 20.0404L30.9608 19.6395L31.4901 19.2458L32.0233 18.8595L32.5603 18.4805L33.101 18.109L33.6452 17.7448L34.1929 17.3882L34.744 17.039L35.2983 16.6974L35.8558 16.3634L36.4163 16.0371L36.9798 15.7184L37.5461 15.4074L38.1151 15.1041L38.6868 14.8086L39.261 14.5209L39.8376 14.241L40.4165 13.9689L40.9976 13.7047L41.5808 13.4483L42.166 13.1999L42.753 12.9594L43.3417 12.7268L43.9322 12.5022L44.5241 12.2855L45.1175 12.0769L45.7122 11.8762L46.308 11.6835L46.905 11.4988L47.5029 11.3221L48.1017 11.1534L48.7013 10.9927L49.3015 10.84L49.9022 10.6954L50.5033 10.5587L51.1047 10.4299L51.7062 10.3092L52.3079 10.1964L52.9095 10.0916L53.511 9.99465L54.1122 9.90565L54.713 9.82455L55.3134 9.75132L55.9131 9.68593L56.5122 9.62837L57.1104 9.5786L57.7077 9.5366L58.304 9.50234L58.8991 9.47577L59.493 9.45687L60.0855 9.4456L60.6766 9.44192L61.2661 9.44578L61.8539 9.45714L62.44 9.47595L63.0241 9.50217L63.6063 9.53574L64.1865 9.57661L64.7644 9.62472L65.3401 9.68001L65.9133 9.74241L66.4842 9.81187L67.0524 9.88831L67.618 9.97166L68.1808 10.0619L68.7408 10.1588L69.2978 10.2624L69.8518 10.3726L70.4027 10.4894L70.9504 10.6125L71.4949 10.7419L72.0359 10.8776L72.5736 11.0194L73.1078 11.1672L73.6383 11.3208L74.1653 11.4803L74.6885 11.6454L75.208 11.816L75.7236 11.9921L76.2354 12.1734L76.7432 12.3599L77.247 12.5514L77.7469 12.7477L78.2427 12.9487L78.7344 13.1543L79.2219 13.3642L79.7054 13.5784L80.1846 13.7967L80.6598 14.0188L81.1307 14.2447L81.5975 14.4742L82.0601 14.707L82.5185 14.9432L82.9728 15.1824L83.423 15.4246L83.869 15.6696L84.3109 15.9172L84.7488 16.1674L85.1827 16.42L85.6126 16.6748L86.0386 16.9317L86.4606 17.1907L86.8788 17.4515L87.2932 17.7141L87.7038 17.9783L88.1107 18.2442L88.514 18.5115L88.9137 18.7801L89.3099 19.05L89.7026 19.3212L90.0919 19.5934L90.4778 19.8667L90.8605 20.1411L91.24 20.4163L91.6163 20.6924L91.9895 20.9694L92.3596 21.2471L92.7268 21.5256L93.0911 21.8049L93.4525 22.0848L93.8112 22.3654L94.1671 22.6467L94.5203 22.9287L94.8708 23.2113L95.2188 23.4946L95.5642 23.7786L95.9071 24.0632L96.2476 24.3485L96.5857 24.6345L96.9214 24.9212L97.2548 25.2086L97.5858 25.4968L97.9147 25.7857L98.2413 26.0753L98.5657 26.3658L98.888 26.657L99.2081 26.9492L99.5261 27.2422L99.8421 27.5361L100.156 27.831L100.468 28.1268L100.777 28.4237L101.085 28.7216L101.391 29.0207L101.695 29.3209L101.996 29.6222L102.296 29.9248L102.593 30.2287L102.889 30.5339L103.182 30.8405L103.474 31.1485L103.763 31.4579L104.05 31.7689L104.335 32.0813L104.618 32.3954L104.898 32.7111L105.177 33.0285L105.453 33.3476L105.727 33.6685L105.998 33.9911L106.267 34.3156L106.534 34.642L106.798 34.9702L107.06 35.3004L107.319 35.6325L107.576 35.9666L107.83 36.3027L108.081 36.6409L108.33 36.9811L108.575 37.3233L108.818 37.6676L109.058 38.014L109.296 38.3625L109.53 38.713L109.761 39.0657L109.989 39.4204L110.215 39.7772L110.437 40.1361L110.656 40.4971L110.872 40.8601L111.084 41.2252L111.294 41.5923L111.5 41.9613L111.704 42.3324L111.904 42.7054L112.1 43.0804L112.294 43.4572L112.484 43.8359L112.672 44.2165L112.856 44.599L113.036 44.9832L113.214 45.3692L113.389 45.757L113.56 46.1465L113.728 46.5377L113.893 46.9306L114.055 47.3252L114.214 47.7214L114.37 48.1192L114.523 48.5187L114.673 48.9198L114.819 49.3224L114.963 49.7267L115.104 50.1325L115.242 50.5398L115.376 50.9486L115.508 51.359L115.637 51.7709L115.763 52.1843L115.886 52.5993L116.006 53.0157L116.123 53.4336L116.237 53.853L116.348 54.2739L116.456 54.6964L116.562 55.1203L116.664 55.5457L116.764 55.9726L116.86 56.401L116.954 56.8308L117.045 57.2622L117.132 57.6952L117.217 58.1296L117.298 58.5655L117.377 59.0029L117.452 59.4419L117.524 59.8823Z"/>
</mask>
<path fill-rule="evenodd" clip-rule="evenodd" d="M117.524 59.8823L117.593 60.3242L117.658 60.7677L117.72 61.2126L117.779 61.6591L117.835 62.107L117.887 62.5564L117.935 63.0073L117.98 63.4596L118.022 63.9134L118.059 64.3685L118.093 64.8251L118.123 65.2831L118.149 65.7425L118.171 66.2031L118.189 66.6651L118.203 67.1283L118.213 67.5928L118.218 68.0585L118.22 68.5253L118.216 68.9933L118.208 69.4623L118.196 69.9323L118.178 70.4033L118.156 70.8752L118.129 71.3479L118.097 71.8214L118.06 72.2956L118.018 72.7705L117.971 73.2459L117.918 73.7218L117.86 74.1982L117.796 74.6749L117.728 75.1518L117.653 75.6289L117.573 76.1061L117.487 76.5833L117.396 77.0604L117.298 77.5373L117.195 78.014L117.086 78.4903L116.971 78.9662L116.85 79.4415L116.724 79.9162L116.591 80.3903L116.452 80.8635L116.308 81.3358L116.157 81.8072L116.001 82.2776L115.838 82.7468L115.669 83.2149L115.495 83.6817L115.315 84.1472L115.129 84.6114L114.937 85.074L114.739 85.5352L114.536 85.9949L114.326 86.453L114.112 86.9095L113.892 87.3643L113.666 87.8175L113.435 88.269L113.199 88.7187L112.957 89.1667L112.71 89.613L112.458 90.0574L112.201 90.5001L111.939 90.941L111.671 91.38L111.399 91.8173L111.122 92.2527L110.841 92.6863L110.554 93.118L110.263 93.548L109.967 93.9761L109.666 94.4024L109.361 94.8268L109.051 95.2495L108.737 95.6703L108.418 96.0894L108.095 96.5066L107.768 96.9221L107.436 97.3357L107.1 97.7475L106.759 98.1575L106.414 98.5657L106.064 98.9721L105.711 99.3766L105.353 99.7794L104.99 100.18L104.624 100.579L104.253 100.976L103.877 101.371L103.498 101.765L103.114 102.156L102.725 102.545L102.332 102.932L101.935 103.317L101.533 103.7L101.127 104.08L100.716 104.458L100.301 104.834L99.8813 105.207L99.4569 105.578L99.0279 105.946L98.5943 106.311L98.156 106.674L97.7131 107.033L97.2654 107.389L96.8129 107.743L96.3557 108.092L95.8937 108.439L95.427 108.782L94.9553 109.121L94.4789 109.456L93.9976 109.787L93.5115 110.114L93.0205 110.437L92.5247 110.755L92.0241 111.068L91.5186 111.377L91.0083 111.68L90.4932 111.978L89.9734 112.271L89.4488 112.559L88.9195 112.84L88.3856 113.116L87.8471 113.386L87.3041 113.649L86.7565 113.906L86.2046 114.157L85.6482 114.4L85.0877 114.637L84.5229 114.866L83.954 115.089L83.3812 115.304L82.8044 115.511L82.2238 115.711L81.6396 115.902L81.0517 116.086L80.4605 116.262L79.8658 116.43L79.268 116.589L78.6671 116.74L78.0632 116.882L77.4566 117.016L76.8473 117.141L76.2354 117.258L75.6211 117.366L75.0046 117.465L74.3859 117.555L73.7653 117.636L73.1428 117.709L72.5187 117.773L71.893 117.828L71.2658 117.874L70.6374 117.911L70.0078 117.94L69.3771 117.96L68.7455 117.972L68.1132 117.975L67.4801 117.97L66.8465 117.956L66.2124 117.934L65.578 117.903L64.9433 117.865L64.3085 117.818L63.6737 117.763L63.0389 117.7L62.4042 117.629L61.7697 117.551L61.1356 117.464L60.5018 117.37L59.8685 117.269L59.2358 117.16L58.6036 117.043L57.9722 116.919L57.3414 116.788L56.7115 116.649L56.0824 116.504L55.4543 116.351L54.8271 116.192L54.201 116.025L53.5759 115.852L52.952 115.671L52.3293 115.484L51.7078 115.29L51.0877 115.09L50.4689 114.883L49.8514 114.669L49.2355 114.449L48.621 114.222L48.0081 113.989L47.3969 113.749L46.7872 113.503L46.1793 113.25L45.5732 112.991L44.9688 112.725L44.3663 112.454L43.7658 112.176L43.1671 111.891L42.5705 111.601L41.9759 111.304L41.3834 111.001L40.7931 110.691L40.205 110.376L39.6191 110.054L39.0355 109.727L38.4543 109.393L37.8756 109.053L37.2993 108.707L36.7257 108.354L36.1546 107.996L35.5863 107.631L35.0208 107.26L34.4581 106.883L33.8984 106.5L33.3418 106.111L32.7883 105.715L32.238 105.313L31.6911 104.905L31.1476 104.491L30.6077 104.07L30.0715 103.643L29.5391 103.21L29.0106 102.771L28.4861 102.325L27.9658 101.873L27.4499 101.414L26.9384 100.949L26.4314 100.478L25.9293 100L25.432 99.516L24.9397 99.0256L24.4526 98.5287L23.9709 98.0256L23.4947 97.516L23.0241 97.0002L22.5594 96.478L22.1006 95.9495L21.6479 95.4148L21.2015 94.8739L20.7616 94.3268L20.3282 93.7735L19.9016 93.2142L19.4819 92.6489L19.0692 92.0777L18.6637 91.5005L18.2655 90.9176L17.8748 90.329L17.4916 89.7347L17.1161 89.1349L16.7485 88.5297L16.3888 87.9191L16.0371 87.3033L15.6936 86.6823L15.3583 86.0564L15.0314 85.4256L14.7129 84.79L14.403 84.1497L14.1018 83.5049L13.8092 82.8557L13.5255 82.2022L13.2508 81.5445L12.985 80.8829L12.7283 80.2173L12.4808 79.548L12.2425 78.875L12.0136 78.1986L11.794 77.5189L11.5839 76.8359L11.3833 76.1499L11.1923 75.461L11.0109 74.7694L10.8392 74.0751L10.6772 73.3784L10.5251 72.6794L10.3827 71.9782L10.2503 71.2751L10.1278 70.5701L10.0152 69.8634L9.91263 69.1552L9.82008 68.4456L9.73758 67.7348L9.66515 67.023L9.60282 66.3103L9.55061 65.5968L9.50854 64.8828L9.47661 64.1684L9.45486 63.4537L9.44326 62.7389L9.44183 62.0242L9.45055 61.3098L9.46941 60.5958L9.49837 59.8823L9.5374 59.1696L9.58646 58.4577L9.64551 57.7469L9.7145 57.0373L9.79336 56.329L9.88205 55.6223L9.98048 54.9172L10.0886 54.2139L10.2063 53.5126L10.3336 52.8133L10.4703 52.1163L10.6163 51.4217L10.7717 50.7295L10.9362 50.04L11.1099 49.3533L11.2925 48.6695L11.4841 47.9887L11.6845 47.311L11.8937 46.6366L12.1115 45.9656L12.3378 45.2981L12.5726 44.6342L12.8158 43.974L13.0673 43.3177L13.3269 42.6653L13.5946 42.0169L13.8703 41.3727L14.1539 40.7327L14.4453 40.0971L14.7444 39.4659L15.0512 38.8393L15.3655 38.2173L15.6873 37.6001L16.0165 36.9877L16.353 36.3802L16.6966 35.7777L17.0474 35.1804L17.4052 34.5883L17.77 34.0014L18.1416 33.42L18.5201 32.844L18.9052 32.2735L19.2969 31.7087L19.6952 31.1497L20.0998 30.5964L20.5109 30.0491L20.9282 29.5077L21.3516 28.9724L21.7812 28.4432L22.2167 27.9202L22.6581 27.4034L23.1053 26.8931L23.5582 26.3891L24.0166 25.8917L24.4805 25.4007L24.9498 24.9164L25.4244 24.4388L25.9041 23.9678L26.3888 23.5037L26.8785 23.0463L27.373 22.5959L27.8722 22.1523L28.3761 21.7158L28.8844 21.2863L29.3972 20.8638L29.9142 20.4485L30.4355 20.0404L30.9608 19.6395L31.4901 19.2458L32.0233 18.8595L32.5603 18.4805L33.101 18.109L33.6452 17.7448L34.1929 17.3882L34.744 17.039L35.2983 16.6974L35.8558 16.3634L36.4163 16.0371L36.9798 15.7184L37.5461 15.4074L38.1151 15.1041L38.6868 14.8086L39.261 14.5209L39.8376 14.241L40.4165 13.9689L40.9976 13.7047L41.5808 13.4483L42.166 13.1999L42.753 12.9594L43.3417 12.7268L43.9322 12.5022L44.5241 12.2855L45.1175 12.0769L45.7122 11.8762L46.308 11.6835L46.905 11.4988L47.5029 11.3221L48.1017 11.1534L48.7013 10.9927L49.3015 10.84L49.9022 10.6954L50.5033 10.5587L51.1047 10.4299L51.7062 10.3092L52.3079 10.1964L52.9095 10.0916L53.511 9.99465L54.1122 9.90565L54.713 9.82455L55.3134 9.75132L55.9131 9.68593L56.5122 9.62837L57.1104 9.5786L57.7077 9.5366L58.304 9.50234L58.8991 9.47577L59.493 9.45687L60.0855 9.4456L60.6766 9.44192L61.2661 9.44578L61.8539 9.45714L62.44 9.47595L63.0241 9.50217L63.6063 9.53574L64.1865 9.57661L64.7644 9.62472L65.3401 9.68001L65.9133 9.74241L66.4842 9.81187L67.0524 9.88831L67.618 9.97166L68.1808 10.0619L68.7408 10.1588L69.2978 10.2624L69.8518 10.3726L70.4027 10.4894L70.9504 10.6125L71.4949 10.7419L72.0359 10.8776L72.5736 11.0194L73.1078 11.1672L73.6383 11.3208L74.1653 11.4803L74.6885 11.6454L75.208 11.816L75.7236 11.9921L76.2354 12.1734L76.7432 12.3599L77.247 12.5514L77.7469 12.7477L78.2427 12.9487L78.7344 13.1543L79.2219 13.3642L79.7054 13.5784L80.1846 13.7967L80.6598 14.0188L81.1307 14.2447L81.5975 14.4742L82.0601 14.707L82.5185 14.9432L82.9728 15.1824L83.423 15.4246L83.869 15.6696L84.3109 15.9172L84.7488 16.1674L85.1827 16.42L85.6126 16.6748L86.0386 16.9317L86.4606 17.1907L86.8788 17.4515L87.2932 17.7141L87.7038 17.9783L88.1107 18.2442L88.514 18.5115L88.9137 18.7801L89.3099 19.05L89.7026 19.3212L90.0919 19.5934L90.4778 19.8667L90.8605 20.1411L91.24 20.4163L91.6163 20.6924L91.9895 20.9694L92.3596 21.2471L92.7268 21.5256L93.0911 21.8049L93.4525 22.0848L93.8112 22.3654L94.1671 22.6467L94.5203 22.9287L94.8708 23.2113L95.2188 23.4946L95.5642 23.7786L95.9071 24.0632L96.2476 24.3485L96.5857 24.6345L96.9214 24.9212L97.2548 25.2086L97.5858 25.4968L97.9147 25.7857L98.2413 26.0753L98.5657 26.3658L98.888 26.657L99.2081 26.9492L99.5261 27.2422L99.8421 27.5361L100.156 27.831L100.468 28.1268L100.777 28.4237L101.085 28.7216L101.391 29.0207L101.695 29.3209L101.996 29.6222L102.296 29.9248L102.593 30.2287L102.889 30.5339L103.182 30.8405L103.474 31.1485L103.763 31.4579L104.05 31.7689L104.335 32.0813L104.618 32.3954L104.898 32.7111L105.177 33.0285L105.453 33.3476L105.727 33.6685L105.998 33.9911L106.267 34.3156L106.534 34.642L106.798 34.9702L107.06 35.3004L107.319 35.6325L107.576 35.9666L107.83 36.3027L108.081 36.6409L108.33 36.9811L108.575 37.3233L108.818 37.6676L109.058 38.014L109.296 38.3625L109.53 38.713L109.761 39.0657L109.989 39.4204L110.215 39.7772L110.437 40.1361L110.656 40.4971L110.872 40.8601L111.084 41.2252L111.294 41.5923L111.5 41.9613L111.704 42.3324L111.904 42.7054L112.1 43.0804L112.294 43.4572L112.484 43.8359L112.672 44.2165L112.856 44.599L113.036 44.9832L113.214 45.3692L113.389 45.757L113.56 46.1465L113.728 46.5377L113.893 46.9306L114.055 47.3252L114.214 47.7214L114.37 48.1192L114.523 48.5187L114.673 48.9198L114.819 49.3224L114.963 49.7267L115.104 50.1325L115.242 50.5398L115.376 50.9486L115.508 51.359L115.637 51.7709L115.763 52.1843L115.886 52.5993L116.006 53.0157L116.123 53.4336L116.237 53.853L116.348 54.2739L116.456 54.6964L116.562 55.1203L116.664 55.5457L116.764 55.9726L116.86 56.401L116.954 56.8308L117.045 57.2622L117.132 57.6952L117.217 58.1296L117.298 58.5655L117.377 59.0029L117.452 59.4419L117.524 59.8823Z" fill="#FABE24"/>
<path fill-rule="evenodd" clip-rule="evenodd" d="M117.524 59.8823L117.593 60.3242L117.658 60.7677L117.72 61.2126L117.779 61.6591L117.835 62.107L117.887 62.5564L117.935 63.0073L117.98 63.4596L118.022 63.9134L118.059 64.3685L118.093 64.8251L118.123 65.2831L118.149 65.7425L118.171 66.2031L118.189 66.6651L118.203 67.1283L118.213 67.5928L118.218 68.0585L118.22 68.5253L118.216 68.9933L118.208 69.4623L118.196 69.9323L118.178 70.4033L118.156 70.8752L118.129 71.3479L118.097 71.8214L118.06 72.2956L118.018 72.7705L117.971 73.2459L117.918 73.7218L117.86 74.1982L117.796 74.6749L117.728 75.1518L117.653 75.6289L117.573 76.1061L117.487 76.5833L117.396 77.0604L117.298 77.5373L117.195 78.014L117.086 78.4903L116.971 78.9662L116.85 79.4415L116.724 79.9162L116.591 80.3903L116.452 80.8635L116.308 81.3358L116.157 81.8072L116.001 82.2776L115.838 82.7468L115.669 83.2149L115.495 83.6817L115.315 84.1472L115.129 84.6114L114.937 85.074L114.739 85.5352L114.536 85.9949L114.326 86.453L114.112 86.9095L113.892 87.3643L113.666 87.8175L113.435 88.269L113.199 88.7187L112.957 89.1667L112.71 89.613L112.458 90.0574L112.201 90.5001L111.939 90.941L111.671 91.38L111.399 91.8173L111.122 92.2527L110.841 92.6863L110.554 93.118L110.263 93.548L109.967 93.9761L109.666 94.4024L109.361 94.8268L109.051 95.2495L108.737 95.6703L108.418 96.0894L108.095 96.5066L107.768 96.9221L107.436 97.3357L107.1 97.7475L106.759 98.1575L106.414 98.5657L106.064 98.9721L105.711 99.3766L105.353 99.7794L104.99 100.18L104.624 100.579L104.253 100.976L103.877 101.371L103.498 101.765L103.114 102.156L102.725 102.545L102.332 102.932L101.935 103.317L101.533 103.7L101.127 104.08L100.716 104.458L100.301 104.834L99.8813 105.207L99.4569 105.578L99.0279 105.946L98.5943 106.311L98.156 106.674L97.7131 107.033L97.2654 107.389L96.8129 107.743L96.3557 108.092L95.8937 108.439L95.427 108.782L94.9553 109.121L94.4789 109.456L93.9976 109.787L93.5115 110.114L93.0205 110.437L92.5247 110.755L92.0241 111.068L91.5186 111.377L91.0083 111.68L90.4932 111.978L89.9734 112.271L89.4488 112.559L88.9195 112.84L88.3856 113.116L87.8471 113.386L87.3041 113.649L86.7565 113.906L86.2046 114.157L85.6482 114.4L85.0877 114.637L84.5229 114.866L83.954 115.089L83.3812 115.304L82.8044 115.511L82.2238 115.711L81.6396 115.902L81.0517 116.086L80.4605 116.262L79.8658 116.43L79.268 116.589L78.6671 116.74L78.0632 116.882L77.4566 117.016L76.8473 117.141L76.2354 117.258L75.6211 117.366L75.0046 117.465L74.3859 117.555L73.7653 117.636L73.1428 117.709L72.5187 117.773L71.893 117.828L71.2658 117.874L70.6374 117.911L70.0078 117.94L69.3771 117.96L68.7455 117.972L68.1132 117.975L67.4801 117.97L66.8465 117.956L66.2124 117.934L65.578 117.903L64.9433 117.865L64.3085 117.818L63.6737 117.763L63.0389 117.7L62.4042 117.629L61.7697 117.551L61.1356 117.464L60.5018 117.37L59.8685 117.269L59.2358 117.16L58.6036 117.043L57.9722 116.919L57.3414 116.788L56.7115 116.649L56.0824 116.504L55.4543 116.351L54.8271 116.192L54.201 116.025L53.5759 115.852L52.952 115.671L52.3293 115.484L51.7078 115.29L51.0877 115.09L50.4689 114.883L49.8514 114.669L49.2355 114.449L48.621 114.222L48.0081 113.989L47.3969 113.749L46.7872 113.503L46.1793 113.25L45.5732 112.991L44.9688 112.725L44.3663 112.454L43.7658 112.176L43.1671 111.891L42.5705 111.601L41.9759 111.304L41.3834 111.001L40.7931 110.691L40.205 110.376L39.6191 110.054L39.0355 109.727L38.4543 109.393L37.8756 109.053L37.2993 108.707L36.7257 108.354L36.1546 107.996L35.5863 107.631L35.0208 107.26L34.4581 106.883L33.8984 106.5L33.3418 106.111L32.7883 105.715L32.238 105.313L31.6911 104.905L31.1476 104.491L30.6077 104.07L30.0715 103.643L29.5391 103.21L29.0106 102.771L28.4861 102.325L27.9658 101.873L27.4499 101.414L26.9384 100.949L26.4314 100.478L25.9293 100L25.432 99.516L24.9397 99.0256L24.4526 98.5287L23.9709 98.0256L23.4947 97.516L23.0241 97.0002L22.5594 96.478L22.1006 95.9495L21.6479 95.4148L21.2015 94.8739L20.7616 94.3268L20.3282 93.7735L19.9016 93.2142L19.4819 92.6489L19.0692 92.0777L18.6637 91.5005L18.2655 90.9176L17.8748 90.329L17.4916 89.7347L17.1161 89.1349L16.7485 88.5297L16.3888 87.9191L16.0371 87.3033L15.6936 86.6823L15.3583 86.0564L15.0314 85.4256L14.7129 84.79L14.403 84.1497L14.1018 83.5049L13.8092 82.8557L13.5255 82.2022L13.2508 81.5445L12.985 80.8829L12.7283 80.2173L12.4808 79.548L12.2425 78.875L12.0136 78.1986L11.794 77.5189L11.5839 76.8359L11.3833 76.1499L11.1923 75.461L11.0109 74.7694L10.8392 74.0751L10.6772 73.3784L10.5251 72.6794L10.3827 71.9782L10.2503 71.2751L10.1278 70.5701L10.0152 69.8634L9.91263 69.1552L9.82008 68.4456L9.73758 67.7348L9.66515 67.023L9.60282 66.3103L9.55061 65.5968L9.50854 64.8828L9.47661 64.1684L9.45486 63.4537L9.44326 62.7389L9.44183 62.0242L9.45055 61.3098L9.46941 60.5958L9.49837 59.8823L9.5374 59.1696L9.58646 58.4577L9.64551 57.7469L9.7145 57.0373L9.79336 56.329L9.88205 55.6223L9.98048 54.9172L10.0886 54.2139L10.2063 53.5126L10.3336 52.8133L10.4703 52.1163L10.6163 51.4217L10.7717 50.7295L10.9362 50.04L11.1099 49.3533L11.2925 48.6695L11.4841 47.9887L11.6845 47.311L11.8937 46.6366L12.1115 45.9656L12.3378 45.2981L12.5726 44.6342L12.8158 43.974L13.0673 43.3177L13.3269 42.6653L13.5946 42.0169L13.8703 41.3727L14.1539 40.7327L14.4453 40.0971L14.7444 39.4659L15.0512 38.8393L15.3655 38.2173L15.6873 37.6001L16.0165 36.9877L16.353 36.3802L16.6966 35.7777L17.0474 35.1804L17.4052 34.5883L17.77 34.0014L18.1416 33.42L18.5201 32.844L18.9052 32.2735L19.2969 31.7087L19.6952 31.1497L20.0998 30.5964L20.5109 30.0491L20.9282 29.5077L21.3516 28.9724L21.7812 28.4432L22.2167 27.9202L22.6581 27.4034L23.1053 26.8931L23.5582 26.3891L24.0166 25.8917L24.4805 25.4007L24.9498 24.9164L25.4244 24.4388L25.9041 23.9678L26.3888 23.5037L26.8785 23.0463L27.373 22.5959L27.8722 22.1523L28.3761 21.7158L28.8844 21.2863L29.3972 20.8638L29.9142 20.4485L30.4355 20.0404L30.9608 19.6395L31.4901 19.2458L32.0233 18.8595L32.5603 18.4805L33.101 18.109L33.6452 17.7448L34.1929 17.3882L34.744 17.039L35.2983 16.6974L35.8558 16.3634L36.4163 16.0371L36.9798 15.7184L37.5461 15.4074L38.1151 15.1041L38.6868 14.8086L39.261 14.5209L39.8376 14.241L40.4165 13.9689L40.9976 13.7047L41.5808 13.4483L42.166 13.1999L42.753 12.9594L43.3417 12.7268L43.9322 12.5022L44.5241 12.2855L45.1175 12.0769L45.7122 11.8762L46.308 11.6835L46.905 11.4988L47.5029 11.3221L48.1017 11.1534L48.7013 10.9927L49.3015 10.84L49.9022 10.6954L50.5033 10.5587L51.1047 10.4299L51.7062 10.3092L52.3079 10.1964L52.9095 10.0916L53.511 9.99465L54.1122 9.90565L54.713 9.82455L55.3134 9.75132L55.9131 9.68593L56.5122 9.62837L57.1104 9.5786L57.7077 9.5366L58.304 9.50234L58.8991 9.47577L59.493 9.45687L60.0855 9.4456L60.6766 9.44192L61.2661 9.44578L61.8539 9.45714L62.44 9.47595L63.0241 9.50217L63.6063 9.53574L64.1865 9.57661L64.7644 9.62472L65.3401 9.68001L65.9133 9.74241L66.4842 9.81187L67.0524 9.88831L67.618 9.97166L68.1808 10.0619L68.7408 10.1588L69.2978 10.2624L69.8518 10.3726L70.4027 10.4894L70.9504 10.6125L71.4949 10.7419L72.0359 10.8776L72.5736 11.0194L73.1078 11.1672L73.6383 11.3208L74.1653 11.4803L74.6885 11.6454L75.208 11.816L75.7236 11.9921L76.2354 12.1734L76.7432 12.3599L77.247 12.5514L77.7469 12.7477L78.2427 12.9487L78.7344 13.1543L79.2219 13.3642L79.7054 13.5784L80.1846 13.7967L80.6598 14.0188L81.1307 14.2447L81.5975 14.4742L82.0601 14.707L82.5185 14.9432L82.9728 15.1824L83.423 15.4246L83.869 15.6696L84.3109 15.9172L84.7488 16.1674L85.1827 16.42L85.6126 16.6748L86.0386 16.9317L86.4606 17.1907L86.8788 17.4515L87.2932 17.7141L87.7038 17.9783L88.1107 18.2442L88.514 18.5115L88.9137 18.7801L89.3099 19.05L89.7026 19.3212L90.0919 19.5934L90.4778 19.8667L90.8605 20.1411L91.24 20.4163L91.6163 20.6924L91.9895 20.9694L92.3596 21.2471L92.7268 21.5256L93.0911 21.8049L93.4525 22.0848L93.8112 22.3654L94.1671 22.6467L94.5203 22.9287L94.8708 23.2113L95.2188 23.4946L95.5642 23.7786L95.9071 24.0632L96.2476 24.3485L96.5857 24.6345L96.9214 24.9212L97.2548 25.2086L97.5858 25.4968L97.9147 25.7857L98.2413 26.0753L98.5657 26.3658L98.888 26.657L99.2081 26.9492L99.5261 27.2422L99.8421 27.5361L100.156 27.831L100.468 28.1268L100.777 28.4237L101.085 28.7216L101.391 29.0207L101.695 29.3209L101.996 29.6222L102.296 29.9248L102.593 30.2287L102.889 30.5339L103.182 30.8405L103.474 31.1485L103.763 31.4579L104.05 31.7689L104.335 32.0813L104.618 32.3954L104.898 32.7111L105.177 33.0285L105.453 33.3476L105.727 33.6685L105.998 33.9911L106.267 34.3156L106.534 34.642L106.798 34.9702L107.06 35.3004L107.319 35.6325L107.576 35.9666L107.83 36.3027L108.081 36.6409L108.33 36.9811L108.575 37.3233L108.818 37.6676L109.058 38.014L109.296 38.3625L109.53 38.713L109.761 39.0657L109.989 39.4204L110.215 39.7772L110.437 40.1361L110.656 40.4971L110.872 40.8601L111.084 41.2252L111.294 41.5923L111.5 41.9613L111.704 42.3324L111.904 42.7054L112.1 43.0804L112.294 43.4572L112.484 43.8359L112.672 44.2165L112.856 44.599L113.036 44.9832L113.214 45.3692L113.389 45.757L113.56 46.1465L113.728 46.5377L113.893 46.9306L114.055 47.3252L114.214 47.7214L114.37 48.1192L114.523 48.5187L114.673 48.9198L114.819 49.3224L114.963 49.7267L115.104 50.1325L115.242 50.5398L115.376 50.9486L115.508 51.359L115.637 51.7709L115.763 52.1843L115.886 52.5993L116.006 53.0157L116.123 53.4336L116.237 53.853L116.348 54.2739L116.456 54.6964L116.562 55.1203L116.664 55.5457L116.764 55.9726L116.86 56.401L116.954 56.8308L117.045 57.2622L117.132 57.6952L117.217 58.1296L117.298 58.5655L117.377 59.0029L117.452 59.4419L117.524 59.8823Z" stroke="white" stroke-width="18.8835" mask="url(#path-1-outside-1_833_12932)"/>
</g>
<g filter="url(#filter1_ddddi_833_12932)">
<path d="M88.1722 66.7779C86.1842 69.1209 83.9832 71.6059 81.4982 74.3039L88.1012 80.1969C86.3972 83.6759 80.3622 89.1429 78.9422 88.9299L72.1972 82.0429C71.9842 82.2559 69.9252 84.8119 65.0262 86.5159C62.5412 87.3679 59.9142 87.7939 57.0032 87.7939C47.1342 87.7939 41.0282 82.0429 41.0282 74.4459C41.0282 69.2629 43.5132 65.3579 46.2822 63.0859C47.6312 61.8789 49.2642 60.6719 51.1812 59.4649C48.1282 56.9089 45.5722 52.8619 45.5722 49.1699C45.5722 42.2119 51.3942 36.2479 61.0502 36.2479C69.2152 36.2479 75.8892 41.2889 75.8892 49.0279C75.8892 53.8559 72.4102 57.9739 67.9372 60.4589L72.9782 64.9319C75.7472 62.7309 77.7352 60.9559 78.9422 59.6069C79.8652 59.1809 87.8172 65.6419 88.1722 66.7779ZM63.4642 50.0219C63.4642 48.1049 62.3992 47.1819 60.3402 47.1819C58.6362 47.1819 57.3582 48.4599 57.3582 49.8799C57.3582 51.0159 58.9912 53.2169 60.1982 53.7849C60.4112 54.2109 63.4642 51.6549 63.4642 50.0219ZM58.6362 75.4399C60.6952 75.4399 62.7542 74.3749 64.2452 73.1679L58.7072 66.7779L56.7902 68.4109C55.5832 69.3339 55.0152 70.6829 55.0152 72.4579C55.0152 74.1619 56.8612 75.4399 58.6362 75.4399Z" fill="#FCE589"/>
</g>
<defs>
<filter id="filter0_d_833_12932" x="0" y="0" width="127.661" height="135.285" filterUnits="userSpaceOnUse" color-interpolation-filters="sRGB">
<feFlood flood-opacity="0" result="BackgroundImageFix"/>
<feColorMatrix in="SourceAlpha" type="matrix" values="0 0 0 0 0 0 0 0 0 0 0 0 0 0 0 0 0 0 127 0" result="hardAlpha"/>
<feOffset dy="7.86811"/>
<feComposite in2="hardAlpha" operator="out"/>
<feColorMatrix type="matrix" values="0 0 0 0 0.980469 0 0 0 0 0.746094 0 0 0 0 0.140625 0 0 0 1 0"/>
<feBlend mode="normal" in2="BackgroundImageFix" result="effect1_dropShadow_833_12932"/>
<feBlend mode="normal" in="SourceGraphic" in2="effect1_dropShadow_833_12932" result="shape"/>
</filter>
<filter id="filter1_ddddi_833_12932" x="41.0281" y="36.2479" width="47.144" height="56.895" filterUnits="userSpaceOnUse" color-interpolation-filters="sRGB">
<feFlood flood-opacity="0" result="BackgroundImageFix"/>
<feColorMatrix in="SourceAlpha" type="matrix" values="0 0 0 0 0 0 0 0 0 0 0 0 0 0 0 0 0 0 127 0" result="hardAlpha"/>
<feOffset dy="4"/>
<feComposite in2="hardAlpha" operator="out"/>
<feColorMatrix type="matrix" values="0 0 0 0 0.956863 0 0 0 0 0.615686 0 0 0 0 0.0431373 0 0 0 1 0"/>
<feBlend mode="normal" in2="BackgroundImageFix" result="effect1_dropShadow_833_12932"/>
<feColorMatrix in="SourceAlpha" type="matrix" values="0 0 0 0 0 0 0 0 0 0 0 0 0 0 0 0 0 0 127 0" result="hardAlpha"/>
<feOffset dy="3"/>
<feComposite in2="hardAlpha" operator="out"/>
<feColorMatrix type="matrix" values="0 0 0 0 0.956863 0 0 0 0 0.615686 0 0 0 0 0.0431373 0 0 0 1 0"/>
<feBlend mode="normal" in2="effect1_dropShadow_833_12932" result="effect2_dropShadow_833_12932"/>
<feColorMatrix in="SourceAlpha" type="matrix" values="0 0 0 0 0 0 0 0 0 0 0 0 0 0 0 0 0 0 127 0" result="hardAlpha"/>
<feOffset dy="2"/>
<feComposite in2="hardAlpha" operator="out"/>
<feColorMatrix type="matrix" values="0 0 0 0 0.956863 0 0 0 0 0.615686 0 0 0 0 0.0431373 0 0 0 1 0"/>
<feBlend mode="normal" in2="effect2_dropShadow_833_12932" result="effect3_dropShadow_833_12932"/>
<feColorMatrix in="SourceAlpha" type="matrix" values="0 0 0 0 0 0 0 0 0 0 0 0 0 0 0 0 0 0 127 0" result="hardAlpha"/>
<feOffset dy="1"/>
<feComposite in2="hardAlpha" operator="out"/>
<feColorMatrix type="matrix" values="0 0 0 0 0.957031 0 0 0 0 0.617188 0 0 0 0 0.0429688 0 0 0 1 0"/>
<feBlend mode="normal" in2="effect3_dropShadow_833_12932" result="effect4_dropShadow_833_12932"/>
<feBlend mode="normal" in="SourceGraphic" in2="effect4_dropShadow_833_12932" result="shape"/>
<feColorMatrix in="SourceAlpha" type="matrix" values="0 0 0 0 0 0 0 0 0 0 0 0 0 0 0 0 0 0 127 0" result="hardAlpha"/>
<feOffset dy="2"/>
<feComposite in2="hardAlpha" operator="arithmetic" k2="-1" k3="1"/>
<feColorMatrix type="matrix" values="0 0 0 0 0.996094 0 0 0 0 0.980469 0 0 0 0 0.917969 0 0 0 1 0"/>
<feBlend mode="normal" in2="shape" result="effect5_innerShadow_833_12932"/>
</filter>
</defs>
</svg>
